<?xml version="1.0" standalone="no"?>
<!DOCTYPE svg PUBLIC "-//W3C//DTD SVG 20010904//EN"
 "http://www.w3.org/TR/2001/REC-SVG-20010904/DTD/svg10.dtd">
<svg version="1.0" xmlns="http://www.w3.org/2000/svg"
 width="1280.000000pt" height="1189.000000pt" viewBox="0 0 1280.000000 1189.000000"
 preserveAspectRatio="xMidYMid meet">
<metadata>
Created by potrace 1.15, written by Peter Selinger 2001-2017
</metadata>
<g transform="translate(0.000000,1189.000000) scale(0.100000,-0.100000)"
fill="#8bc34a" stroke="none">
<path d="M5881 10267 c-195 -579 -357 -1058 -360 -1065 -4 -7 -73 71 -180 203
-95 118 -177 215 -181 215 -4 0 -13 -128 -20 -285 -7 -157 -16 -285 -20 -285
-4 0 -267 315 -584 700 -318 385 -578 700 -579 700 -1 0 0 -66 1 -147 l4 -147
-39 29 c-21 16 -143 112 -272 213 -128 101 -234 182 -236 180 -2 -2 602 -1427
760 -1792 l26 -59 -28 18 c-15 10 -104 69 -198 132 -93 62 -171 109 -173 104
-1 -4 11 -88 28 -186 17 -97 30 -178 28 -180 -2 -2 -156 64 -342 146 -187 82
-340 148 -341 146 -1 -1 58 -100 132 -221 74 -120 133 -219 131 -221 -2 -1
-358 167 -793 375 -434 207 -792 375 -794 373 -3 -2 16 -25 41 -51 25 -26 321
-357 658 -737 337 -379 624 -702 638 -717 l25 -28 -69 19 c-289 80 -636 172
-639 169 -2 -2 127 -158 286 -348 158 -190 288 -347 289 -351 0 -3 -68 -12
-152 -20 -151 -14 -154 -14 -478 18 -312 31 -340 33 -710 30 l-384 -2 79 -69
c44 -38 81 -72 82 -75 2 -3 -160 -30 -360 -60 -199 -30 -370 -57 -380 -61 -18
-6 1307 -469 1761 -616 129 -42 232 -77 230 -79 -1 -2 -284 -49 -628 -104
-344 -56 -629 -103 -635 -105 -10 -4 0 -9 179 -84 67 -28 103 -48 95 -52 -8
-4 -136 -40 -286 -81 -150 -41 -269 -77 -265 -80 4 -4 421 -134 927 -289 506
-156 924 -286 928 -290 4 -4 -311 -281 -702 -616 -390 -335 -708 -610 -707
-612 2 -1 174 34 382 78 208 44 383 80 389 80 5 0 -147 -105 -338 -232 -192
-128 -345 -234 -340 -235 5 -2 310 58 678 133 1315 266 1609 324 1615 322 4
-2 -180 -277 -408 -613 -228 -335 -484 -713 -569 -838 l-154 -228 91 46 c51
26 94 44 96 42 3 -2 -43 -93 -101 -202 -57 -110 -104 -199 -102 -200 1 -1 281
159 622 355 341 197 621 357 622 356 1 -1 -22 -96 -52 -211 l-54 -209 27 27
c15 15 167 181 337 370 265 291 323 350 394 399 47 32 85 57 86 55 3 -2 -361
-2089 -370 -2124 -3 -13 -4 -23 -2 -23 2 0 228 340 503 755 l499 754 6 -182
c4 -100 7 -278 8 -395 0 -117 5 -211 9 -208 4 3 106 237 227 520 120 284 219
515 221 513 1 -1 82 -501 178 -1111 97 -610 178 -1111 180 -1113 3 -4 33 117
137 554 24 101 46 183 49 183 3 0 39 -126 80 -280 40 -154 77 -277 80 -273 4
5 87 388 184 853 97 465 180 853 184 863 5 12 44 -77 126 -288 66 -167 122
-302 125 -299 5 4 43 422 72 782 8 96 16 152 23 152 6 0 130 -48 275 -107
l264 -108 309 -495 c268 -430 308 -490 308 -459 0 20 -7 134 -15 254 -9 120
-14 219 -13 221 2 1 228 -237 503 -531 275 -293 501 -531 503 -530 2 2 -195
556 -439 1232 -243 675 -444 1236 -447 1245 -2 11 260 -143 662 -386 366 -223
666 -401 666 -397 0 4 -13 49 -30 101 -16 52 -27 96 -25 98 2 2 106 -50 231
-115 126 -65 232 -120 236 -121 5 -2 -75 124 -178 279 -102 156 -188 289 -191
295 -2 6 182 -38 409 -97 982 -255 1098 -285 1098 -283 0 2 -200 157 -445 345
-245 188 -444 343 -443 345 2 1 260 -11 573 -26 314 -16 595 -30 625 -30 58 0
160 -50 -2320 1148 l-115 55 345 28 c190 15 713 56 1163 91 449 34 817 66 817
69 0 3 -133 91 -296 195 -163 103 -291 190 -286 192 6 2 70 -6 143 -17 73 -11
134 -19 136 -17 2 1 -534 182 -1189 401 -656 219 -1196 401 -1200 404 -4 4
388 135 871 291 483 157 874 288 867 291 -6 4 -56 12 -111 19 -55 6 -107 14
-115 17 -13 4 516 140 797 205 51 12 91 23 89 25 -2 2 -104 12 -226 23 -121
10 -223 20 -226 22 -2 3 95 51 216 108 121 57 218 105 216 107 -2 3 -600 -1
-1328 -7 -727 -7 -1333 -11 -1345 -9 -18 3 207 193 1049 888 590 486 1061 880
1048 876 -14 -4 -292 -99 -619 -211 -327 -112 -596 -203 -597 -201 -3 3 424
539 507 637 21 24 36 46 34 48 -2 2 -51 -4 -109 -14 -70 -11 -110 -14 -118 -7
-9 7 -185 -20 -548 -83 -294 -51 -538 -92 -541 -91 -3 1 34 155 83 342 48 187
87 342 85 345 -1 4 -143 -142 -316 -322 -173 -180 -316 -327 -317 -325 -2 1
98 263 222 582 123 319 234 605 245 635 l20 54 -22 -19 c-12 -11 -321 -302
-688 -647 -528 -497 -667 -624 -673 -610 -4 9 -11 145 -17 302 -24 619 -52
1259 -59 1335 l-7 80 -225 -497 c-124 -274 -227 -498 -230 -498 -3 0 -18 181
-34 403 -16 221 -32 421 -35 445 l-6 42 -255 -439 c-140 -241 -256 -437 -258
-436 -2 2 -32 335 -68 741 -35 405 -65 739 -67 740 -1 1 -161 -471 -356 -1049z"/>
</g>
</svg>
