<?xml version="1.0" standalone="no"?>
<!DOCTYPE svg PUBLIC "-//W3C//DTD SVG 20010904//EN"
 "http://www.w3.org/TR/2001/REC-SVG-20010904/DTD/svg10.dtd">
<svg version="1.0" xmlns="http://www.w3.org/2000/svg"
 width="1280.000000pt" height="1280.000000pt" viewBox="0 0 1280.000000 1280.000000"
 preserveAspectRatio="xMidYMid meet">
<metadata>
Created by potrace 1.15, written by Peter Selinger 2001-2017
</metadata>
<g transform="translate(0.000000,1280.000000) scale(0.100000,-0.100000)"
fill="#4caf50" stroke="none">
<path d="M6341 11298 c-75 -12 -131 -39 -187 -90 -62 -56 -100 -118 -115 -184
-11 -48 -15 -54 -38 -54 -22 0 -31 10 -59 65 -55 106 -147 172 -270 195 -205
37 -406 -117 -430 -331 -6 -51 -11 -63 -29 -70 -19 -7 -27 -2 -52 35 -41 59
-94 104 -161 135 -47 22 -69 26 -150 26 -82 0 -103 -4 -152 -27 -76 -35 -138
-95 -179 -170 -31 -58 -34 -70 -36 -163 -2 -89 -4 -101 -22 -109 -17 -7 -31 1
-76 42 -74 68 -146 95 -250 95 -104 0 -176 -27 -250 -94 -103 -95 -147 -240
-111 -369 15 -53 14 -56 -5 -72 -19 -16 -22 -16 -62 13 -80 59 -181 84 -275
69 -249 -40 -389 -307 -279 -532 23 -46 23 -48 5 -66 -18 -18 -20 -18 -66 5
-143 70 -314 41 -429 -73 -66 -66 -97 -140 -101 -242 -5 -98 13 -163 64 -234
32 -45 32 -48 16 -67 -16 -19 -19 -20 -72 -5 -129 36 -274 -8 -369 -111 -67
-74 -94 -146 -94 -250 0 -104 27 -176 95 -250 41 -45 49 -59 42 -76 -8 -18
-20 -20 -109 -22 -93 -2 -105 -5 -163 -36 -75 -41 -135 -103 -170 -179 -23
-49 -27 -70 -27 -152 0 -81 4 -103 26 -150 31 -67 76 -120 135 -161 37 -25 42
-33 35 -52 -7 -18 -19 -23 -70 -29 -214 -24 -368 -225 -331 -430 23 -123 89
-215 195 -270 56 -28 65 -37 65 -60 0 -21 -5 -28 -20 -28 -83 0 -228 -107
-274 -203 -48 -98 -50 -225 -6 -324 41 -93 163 -190 262 -208 33 -6 38 -11 38
-34 0 -23 -8 -31 -49 -50 -108 -48 -188 -155 -211 -279 -37 -206 114 -402 329
-429 53 -7 65 -12 72 -30 7 -19 2 -27 -35 -52 -59 -41 -104 -94 -135 -161 -22
-47 -26 -69 -26 -150 0 -82 4 -103 27 -152 35 -76 95 -138 170 -179 58 -31 70
-34 163 -36 89 -2 101 -4 109 -22 7 -17 -1 -31 -42 -76 -68 -74 -95 -146 -95
-250 0 -104 27 -176 94 -250 95 -103 240 -147 369 -111 53 15 56 14 73 -6 17
-20 17 -22 -2 -42 -11 -12 -32 -46 -48 -76 -25 -50 -28 -64 -28 -160 0 -96 3
-110 29 -164 92 -187 299 -260 496 -175 47 20 53 21 67 6 15 -14 14 -20 -6
-67 -34 -79 -44 -150 -31 -222 23 -123 100 -226 208 -276 50 -24 69 -27 162
-27 96 0 110 3 160 28 30 16 64 37 76 48 20 19 22 19 42 2 20 -17 21 -20 6
-73 -36 -129 8 -274 111 -369 74 -67 146 -94 250 -94 104 0 176 27 250 95 46
42 59 49 76 42 18 -8 20 -20 22 -104 2 -85 5 -103 34 -161 39 -79 102 -140
181 -177 49 -23 70 -27 152 -27 81 0 103 4 150 26 67 31 120 76 161 135 25 37
33 42 52 35 18 -7 23 -19 29 -70 24 -211 225 -368 424 -332 128 24 221 90 276
196 28 55 37 65 59 65 23 0 27 -6 38 -54 21 -96 113 -206 205 -246 93 -42 219
-42 312 0 92 40 184 150 205 246 11 48 15 54 38 54 22 0 31 -10 59 -65 55
-106 148 -172 276 -196 199 -36 397 118 423 330 7 53 12 65 30 72 19 7 27 2
52 -35 41 -59 94 -104 161 -135 47 -22 69 -26 150 -26 82 0 103 4 152 27 79
37 142 98 181 177 29 58 32 76 34 161 2 84 4 96 22 104 17 7 30 0 76 -42 74
-68 146 -95 250 -95 104 0 176 27 250 94 103 95 147 240 111 369 -15 53 -14
56 6 73 20 17 22 17 42 -2 12 -11 46 -32 76 -48 50 -25 64 -28 160 -28 93 0
112 3 162 27 186 87 266 315 175 500 -23 46 -23 48 -5 66 18 18 20 18 66 -5
185 -91 406 -14 498 173 26 54 29 68 29 164 0 96 -3 110 -28 160 -16 30 -38
65 -50 78 -21 22 -21 23 -1 42 18 18 22 18 74 4 130 -36 274 8 369 111 67 74
94 146 94 250 0 104 -27 176 -95 250 -41 45 -49 59 -42 76 8 18 20 20 109 22
93 2 105 5 163 36 75 41 135 103 170 179 23 49 27 70 27 152 0 81 -4 103 -26
150 -31 67 -76 120 -135 161 -37 25 -42 33 -35 52 7 18 19 23 72 30 170 21
302 146 329 313 26 160 -64 329 -211 395 -41 19 -49 27 -49 50 0 23 5 28 38
34 99 18 221 115 262 208 44 99 42 226 -6 324 -46 96 -191 203 -274 203 -15 0
-20 7 -20 28 0 23 9 32 65 60 105 55 172 147 194 268 38 207 -116 408 -330
432 -51 6 -63 11 -70 29 -7 19 -2 27 35 52 59 41 104 94 135 161 22 47 26 69
26 150 0 82 -4 103 -27 152 -35 76 -95 138 -170 179 -58 31 -70 34 -163 36
-89 2 -101 4 -109 22 -7 17 1 31 42 76 68 74 95 146 95 250 0 104 -27 176 -94
250 -95 103 -240 147 -369 111 -53 -15 -56 -14 -72 5 -16 19 -16 22 16 67 51
71 69 136 64 234 -4 102 -35 176 -101 242 -115 114 -286 143 -429 73 -46 -23
-48 -23 -66 -5 -18 18 -18 20 5 66 132 268 -96 578 -392 530 -62 -10 -146 -46
-181 -79 -20 -19 -22 -19 -42 -2 -20 17 -21 20 -6 73 36 129 -8 274 -111 369
-74 67 -146 94 -250 94 -104 0 -176 -27 -250 -95 -46 -42 -59 -49 -76 -42 -18
8 -20 20 -22 104 -2 85 -5 103 -34 161 -39 79 -102 140 -181 177 -49 23 -70
27 -152 27 -81 0 -103 -4 -150 -26 -67 -31 -120 -76 -161 -135 -25 -37 -33
-42 -52 -35 -18 7 -23 19 -30 72 -27 215 -224 366 -429 329 -123 -23 -215 -89
-270 -195 -28 -55 -37 -65 -59 -65 -23 0 -28 5 -34 38 -17 91 -93 197 -180
247 -66 39 -163 56 -244 43z"/>
</g>
</svg>
